/* XPM */
static char *result[] = {
/* columns rows colors chars-per-pixel */
"50 50 163 2 ",
"   c black",
".  c #25211F",
"X  c #584F49",
"o  c #574E48",
"O  c #574E49",
"+  c #433B37",
"@  c #0E0D0C",
"#  c #23201E",
"$  c #534A45",
"%  c #584E49",
"&  c #574D48",
"*  c #453D39",
"=  c #131110",
"-  c #1A1716",
";  c #544B46",
":  c #564D48",
">  c #4E4541",
",  c #100E0D",
"<  c #584F4A",
"1  c #59514B",
"2  c #DAC8BD",
"3  c #D7C4B9",
"4  c #D0BBAE",
"5  c #D0BAAD",
"6  c #9F8D84",
"7  c #231E1C",
"8  c #544C47",
"9  c #C6B2A5",
"0  c #D1BBAE",
"q  c #CFB9AC",
"w  c #A59389",
"e  c #2E2926",
"r  c #3E3834",
"t  c #C8B3A6",
"y  c #CEB8AB",
"u  c #BAA59A",
"i  c #26211F",
"p  c #2E2A27",
"a  c #CFB9AD",
"s  c #D3BDB0",
"d  c #5C5652",
"f  c #F2EBE6",
"g  c #ECE3DF",
"h  c #CEBAAD",
"j  c #CDB8AB",
"k  c #9D8B82",
"l  c #221E1C",
"z  c #534B46",
"x  c #C3B0A3",
"c  c #CEB9AC",
"v  c #CCB7AA",
"b  c #A39187",
"n  c #2E2826",
"m  c #3D3733",
"M  c #C5B1A4",
"N  c #CBB6A9",
"B  c #B8A399",
"V  c #5D5753",
"C  c #F6F1EE",
"Z  c #F0E9E5",
"A  c #C3AFA3",
"S  c #C5B0A4",
"D  c #B8A398",
"F  c #F6F1ED",
"G  c #EFE8E5",
"H  c #262220",
"J  c #9C8A81",
"K  c #282422",
"L  c #050404",
"P  c #F5F0EC",
"I  c #EFE8E4",
"U  c #282321",
"Y  c #110F0E",
"T  c #534B45",
"R  c #59504B",
"E  c #DAC8BE",
"W  c #D6C4BA",
"Q  c #CDB8AC",
"!  c #2C2724",
"~  c #C2AFA2",
"^  c #58504B",
"/  c #D9C7BD",
"(  c #D5C4B9",
")  c #5D5652",
"_  c #F3EDE9",
"`  c #EDE5E1",
"'  c #59524D",
"]  c #E0D1C8",
"[  c #DCCCC3",
"{  c #24201E",
"}  c #A29087",
"|  c #080706",
" . c #0C0A0A",
".. c #2C2725",
"X. c #C4B0A3",
"o. c #2D2926",
"O. c #CAB5A8",
"+. c #B7A298",
"@. c #292422",
"#. c #100F0E",
"$. c #2B2724",
"%. c #2D2826",
"&. c #231F1D",
"*. c #070606",
"=. c #0B0A09",
"-. c #2D2825",
";. c #282421",
":. c #080707",
">. c #302B28",
",. c #2F2B28",
"<. c #0A0908",
"1. c #272321",
"2. c #090808",
"3. c #0E0C0B",
"4. c #2B2623",
"5. c #B19D93",
"6. c #322D2A",
"7. c #35302D",
"8. c #B4A296",
"9. c #B29E94",
"0. c #473E3A",
"q. c #B19F94",
"w. c #CBB6AA",
"e. c #BFAA9E",
"r. c #4A413D",
"t. c #B29E93",
"y. c #332D2A",
"u. c #36302D",
"i. c #B5A397",
"p. c #CFBAAD",
"a. c #B39F95",
"s. c #473E3B",
"d. c #292522",
"f. c #B2A095",
"g. c #C0AB9F",
"h. c #4B433E",
"j. c #B4A095",
"k. c #272220",
"l. c #161312",
"z. c #342E2B",
"x. c #090707",
"c. c #171513",
"v. c #36312D",
"b. c #4D4540",
"n. c #B8A599",
"m. c #D2BCAF",
"M. c #4C433F",
"N. c #B5A197",
"B. c #1E1B19",
"V. c #483F3C",
"C. c #0D0C0B",
"Z. c #11100F",
"A. c #060605",
"S. c #4C443F",
"D. c #B5A297",
"F. c #272320",
"G. c #524844",
"H. c #C3ADA2",
"J. c #2A2523",
"K. c #2E2927",
"L. c #4B423E",
"P. c #1F1C1A",
"I. c white",
/* pixels */
"                                                                                                    ",
"  . X o O O O + @ # $ % O O & * = - ; O O O : > , = o O O O O O O O O O O O O O O O O O O O O < .   ",
"  1 2 3 4 5 5 6 7 8 9 0 5 4 q w e r t 4 5 4 y u i p a 5 5 5 5 5 5 5 5 5 5 5 5 5 5 5 5 5 5 5 4 s <   ",
"  d f g h j j k l z x c j j v b n m M j j j N B i e v j j j j j j j j j j j j j j j j j j j j 4 O   ",
"  V C Z h j j k l z A c j j v b n m S j j j N D i e v j j j j j j j j j j j j j j j j j j j j 5 O   ",
"  V F G h j j k l z A c j j v b n m S j j j N D i e v j j j j j j j j j j j j j j j j j j j j 5 O   ",
"  V F G h j j k l z A c j j v b n m S j j j N D i e v j j j j j j j j j j j j j j j j j j j j 5 O   ",
"  V F G h j j k l z A c j j v b n m S j j j N D H l J k k k k k k k k k k k k k k k k k k k k 6 +   ",
"  V F G h j j k l z A c j j v b n m S j j j N D K L l l l l l l l l l l l l l l l l l l l l l 7 @   ",
"  V P I h j j k l z A c j j v b n m S j j j N D U Y T z z z z z z z z z z z z z z z z z z z z 8 #   ",
"  R E W Q j j k l z A c j j v b n m S j j j N D i ! ~ A A A A A A A A A A A A A A A A A A A x 9 $   ",
"  ^ / ( Q j j k l z A c j j v b n m S j j j N D i e j c c c c c c c c c c c c c c c c c c c c 0 %   ",
"  ) _ ` h j j k l z A c j j v b n m S j j j N D i e v j j j j j j j j j j j j j j j j j j j j 5 O   ",
"  ' ] [ c j j k l z A c j j v b n m S j j j N D i e v j j j j j j j j j j j j j j j j j j j j 4 O   ",
"  O 4 j j j j k l z A c j j v b n m S j j j N D i e N v v v v v v v v v v v v v v v v v v v v q &   ",
"  O 5 j j j j k l z A c j j v b n m S j j j N D H { } b b b b b b b b b b b b b b b b b b b b w *   ",
"  O 5 j j j j k l z A c j j v b n m S j j j N D U | n n n n n n n n n n n n n n n n n n n n n e =   ",
"  O 5 j j j j k l z A c j j v b n m S j j j N D U  .m m m m m m m m m m m m m m m m m m m m m r -   ",
"  O 5 j j j j k l z A c j j v b n m S j j j N D i ..X.S S S S S S S S S S S S S S S S S S S M t ;   ",
"  O 5 j j j j k l z A c j j v b n m S j j j N D i e v j j j j j j j j j j j j j j j j j j j j 4 O   ",
"  O 5 j j j j k l z A c j j v b n m S j j j N D i e v j j j j j j j j j j j j j j j j j j j j 5 O   ",
"  O 5 j j j j k l z A c j j v b n m S j j j N D i e v j j j j j j j j j j j j j j j j j j j j 4 O   ",
"  O 5 j j j j k l z A c j j v b n m S j j j N D i o.O.N N N N N N N N N N N N N N N N N N N N y :   ",
"  o a v v v v J l T ~ j v v N } n m X.v v v O.+.i @.+.D D D D D D D D D D D D D D D D D D D B u >   ",
"  = e o.o.o.o.l L #.$.e o.o.%.&.*.=.$.o.o.o.-.;.:.:.. i i i i i U U i . i i i i U U i . i i i H ,   ",
"  = e o.o.o.o.e >.,.o.o.o.o.o.e >.>.o.o.o.o.o.o.<.<.e e e e e 1.2.<.K p e e e U 3.*.1.p e e e 4.,   ",
"  o a v v v v v v v v v v v v v v v v v v v v N %.%.N v v v v 5.6.7.8.c v v v 9.0.K q.c v v w.e.r.  ",
"  O 5 j j j j j j j j j j j j j j j j j j j j v o.o.v j j j j t.y.u.i.p.j j j a.s.d.f.p.j j v g.r.  ",
"  O 5 j j j j j j j j j j j j j j j j j j j j v o.o.v j j j j t.y.u.i.p.j j j a.s.d.f.p.j j v g.r.  ",
"  O 5 j j j j j j j j j j j j j j j j j j j j v o.o.v j j j j t.y.u.i.p.j j j a.s.d.f.p.j j v g.r.  ",
"  O 4 j j j j j j j j j j j j j j j j j j j j v o.o.v j j j j t.y.u.i.p.j j j a.s.d.f.p.j j v g.r.  ",
"  h.j.t.t.t.t.t.t.t.t.t.t.t.t.t.t.t.t.t.t.t.t.5.k.e v j j j j t.y.u.i.p.j j j a.s.d.f.p.j j v g.r.  ",
"  l.z.y.y.y.y.y.y.y.y.y.y.y.y.y.y.y.y.y.y.y.y.6.x.>.v j j j j t.y.u.i.p.j j j a.s.d.f.p.j j v g.r.  ",
"  c.v.u.u.u.u.u.u.u.u.u.u.u.u.u.u.u.u.u.u.u.u.7.2.>.v j j j j t.y.u.i.p.j j j a.s.d.f.p.j j v g.r.  ",
"  b.n.i.i.i.i.i.i.i.i.i.i.i.i.i.i.i.i.i.i.i.i.8.;.e v j j j j t.y.u.i.p.j j j a.s.d.f.p.j j v g.r.  ",
"  X m.p.p.p.p.p.p.p.p.p.p.p.p.p.p.p.p.p.p.p.p.c e o.v j j j j t.y.u.i.p.j j j a.s.d.f.p.j j v g.r.  ",
"  O 5 j j j j j j j j j j j j j j j j j j j j v o.o.v j j j j t.y.u.i.p.j j j a.s.d.f.p.j j v g.r.  ",
"  O 5 j j j j j j j j j j j j j j j j j j j j v o.o.v j j j j t.y.u.i.p.j j j a.s.d.f.p.j j v g.r.  ",
"  O 5 j j j j j j j j j j j j j j j j j j j j v o.o.v j j j j t.y.u.i.p.j j j a.s.d.f.p.j j v g.r.  ",
"  M.N.a.a.a.a.a.a.a.a.a.a.a.a.a.a.a.a.a.a.a.a.9.1.e v j j j j t.y.u.i.p.j j j a.s.d.f.p.j j v g.r.  ",
"  B.V.s.s.s.s.s.s.s.s.s.s.s.s.s.s.s.s.s.s.s.s.0.C.>.v j j j j t.y.u.i.p.j j j a.s.d.f.p.j j v g.r.  ",
"  Z.d.d.d.d.d.d.d.d.d.d.d.d.d.d.d.d.d.d.d.d.d.K A.>.v j j j j t.y.u.i.p.j j j a.s.d.f.p.j j v g.r.  ",
"  S.D.f.f.f.f.f.f.f.f.f.f.f.f.f.f.f.f.f.f.f.f.q.F.e v j j j j t.y.u.i.p.j j j a.s.d.f.p.j j v g.r.  ",
"  X m.p.p.p.p.p.p.p.p.p.p.p.p.p.p.p.p.p.p.p.p.c e o.v j j j j t.y.u.i.p.j j j a.s.d.f.p.j j v g.r.  ",
"  O 5 j j j j j j j j j j j j j j j j j j j j v o.o.v j j j j t.y.u.i.p.j j j a.s.d.f.p.j j v g.r.  ",
"  O 4 j j j j j j j j j j j j j j j j j j j j v o.o.v j j j j t.y.u.i.p.j j j a.s.d.f.p.j j v g.r.  ",
"  o p.j v v v v v v v v v v v v v v v v v v v w.o.o.v j j j j t.y.u.i.p.j j j a.s.d.f.p.j j j g.r.  ",
"  G.H.g.g.g.g.g.g.g.g.g.g.g.g.g.g.g.g.g.g.g.g.e.J.K.a 5 5 5 4 j.z.v.n.m.5 5 5 N.V.d.D.m.5 4 p.H.L.  ",
"  P.L.r.r.r.r.r.r.r.r.r.r.r.r.r.r.r.r.r.r.r.r.r., = o O O O O h.l.c.b.X O O O M.B.Z.S.X O O o G.P.  ",
"                                                                                                    "
};
