/* XPM */
static char *result[] = {
/* columns rows colors chars-per-pixel */
"50 50 86 1 ",
"  c #F3571D",
". c #F35B1E",
"X c #F87D03",
"o c #F6750A",
"O c #F67B0B",
"+ c #F56C12",
"@ c #F2641D",
"# c #F36A19",
"$ c #F57312",
"% c #F37A19",
"& c #EF5D2E",
"* c #F15724",
"= c #F15A25",
"- c #F05A29",
"; c #EE5F30",
": c #EF632D",
"> c #F16222",
", c #F06A26",
"< c #F27120",
"1 c #EC6539",
"2 c #EA7F3E",
"3 c #E96D46",
"4 c #EA7441",
"5 c #E97844",
"6 c #E8714B",
"7 c #E47D5C",
"8 c #F78007",
"9 c #FA8601",
"0 c #F78B07",
"q c #F98800",
"w c #F6830D",
"e c #F78B09",
"r c #F58013",
"t c #F48E13",
"y c #F49016",
"u c #EF8F2A",
"i c #EF9629",
"p c #F19524",
"a c #EC8A34",
"s c #EA9C3D",
"d c #E99E41",
"f c #E29E5F",
"g c #E8A047",
"h c #E7A24C",
"j c #E3A65B",
"k c #DF916F",
"l c #DE8C73",
"z c #DD8F79",
"x c #E28264",
"c c #E19C65",
"v c #E09369",
"b c #E09869",
"n c #DDB075",
"m c #DCB179",
"M c #E2A962",
"N c #D99B89",
"B c #DAB482",
"V c #D8B789",
"C c #D6A192",
"Z c #D5A599",
"A c #D3AB9E",
"S c #D6B794",
"D c #D6BA91",
"F c #D5B299",
"G c #D4BD9A",
"H c #D3ABA1",
"J c #D2BFA4",
"K c #D0B4AD",
"L c #CEB7B6",
"P c #CEB8B7",
"I c #CDBBB9",
"U c #CFC5AE",
"Y c #D0C4AC",
"T c #CFC3B2",
"R c #CDC4BB",
"E c #CCC9BD",
"W c #CAC3C5",
"Q c #CACBC3",
"! c #C9C5CA",
"~ c #C8CECE",
"^ c #C8D0CD",
"/ c #C7CBD2",
"( c #C5CED8",
") c #C6D2D5",
"_ c #C4D4DE",
"` c #C3D5E1",
/* pixels */
"----=zPtqq8+-----1PM999O@-*--*zTtqqX#>---*1PM999O@",
"====*N)eX$@======1(n9O#*=-==*=N(t8$@=-====1(n9o#=-",
"NHHHAW_GFHHHHHHHHH_RSAHHHHHHAAW_GFHHHHHAHHH`ESAHAN",
"JQQQQQEQQQW/`^QQQQEQQQQ!_)QQQQQEQQQ!/`~QQQQQQQQQ!K",
"0eeeeee0w%,x`gqeeee0er<:IUeeeeeeew%>x`dqeeeeeer<:-",
"qqqqqq9$>-=7`d99qqqO#>--PYqq9999$>-=7`d9q9q9O#>---",
"qqqq8O>=*-=7`d99qX#=----PYqq99$@--*=7`d9q9O+>-----",
"99Xo@**=***7`s9o+=====*=PY9Xo@*=***=7`s9X+===***=-",
"hjbllllllllC`BMvllllllllWQjkllllllllC`Bfvllllllllx",
"R____``_____(`__`````____)____``_____)__`__``____R",
"piia4Z)siiiiiiiu27)Vpiiiiiiia2Z)siiiiiiiud7(Vpiiip",
"9O#=*N)tqqqq98$==1(n9q9999O#=*N)tqqqqq8$**1(nq9qqq",
"@=--*N)tqq98$>--=1(n9999O,--*=N(t99q8#--*-1(n9q99O",
"&=**=N(t98+@==**=1(n99o#=****=N)t98+>****-1(n99O#=",
"36666Z)da566666667(Vu266666663Z)sa566666637(Vu5566",
"I_`_(```__`_(``_(```_`_`_)__`_``_`_____``_```__``I",
"hjjjjjjjjjvC_BjjjjjjjjclWQjjjjjjjjjvC`Bjjjjjjjjclx",
"q99qq999o@ 7`s999999X+.=LY99q99q9o. 7`s9999q9X+.==",
"qqqqq8$>=*=7`d9qqqO#:---PYqqqq8O>=-=7`d9qq9O#=--=-",
"qqq8$#----=7`dqqO#>-----PY9q9$@----=7`d9qO#>------",
"0e%,-:;;;;&7`gw,:::;;;;;PYe%,:;;;;;-x`gw<,:;;;:;-;",
"JQ!!!!!!!!!(`~Q!!!WW!!!!`_Q!!!!!!!!!/`^!!!!W!!!!!K",
"mDDSAR_GDDSDDDDSFH`EDDDDDDDDDAW(GDDDDDDDDFH`RDDDDm",
"99o#.N)t9999q98$@1(n999q999o# N)t9qq99qX$>1(n9999q",
"O@=-=N)tqqq98$>--1(n9q999O>>-*N(yqqqq8+>--1(n9q9q9",
"----=N)t998$>-**-1(n9q9O#-**-*N)yq98$>-*--1(n9q9O#",
"=-==*N)tX$>======1(n9o#======*N)tX$=====-=1(n9O#=-",
"NHHHZW_GFHHHHHHHHH_ESAHHHHHHAAW_GFAHHHHHHHH_RSAHHN",
"YQQQQQQQQQQ/`^QQQQQEQQQ~__QQQQQEQQQQ/`^QQQQEQQQQ!K",
"0eeeee00w%>x`g0eeeeeer<:PUeeeeeeew%,x`g0eeeeeer<:;",
"9qqqqq8o>-=7`d9qqq9O#>--PYqqqqq9$@-=7`d9qqq9O#>---",
"qqq99O>---=7`dqqq8#>----PYqqq9$>---=7`dqq98#>-----",
"99Xo@**=***7_dXo+==***==LY9Xo@=*****7_sXX+=*****==",
"hjblllllllvC_BfvllllllllWQjclllllllvC_Bjlllllllllx",
"R____```____(`____``____(__`___`_________````_`__R",
"piua4Z)siiiiiiiu27(Vpiiiiiiua4Z_siiuiiiiua7(Vpiuip",
"9O#=*N)t9q9q9X$>=1(n9999q9O#=*N~t99qq9O$.=1(n99qqq",
"#=--=N)yqqq8$>--*1(n9q99O#---*N)yqq98$>--=1(nqqq9O",
"-=*-*N~t98+>-*=*=1(n99O#=-=*=*N)t9X$>=**-=1(n99O@=",
"36663Z)sa566666667(Vu266666663Z)sa566666667(Vu2663",
"R____```__`_(___````__``_(___```_`___(___````__`_R",
"hjjjjjjjjMvC`BjjjjjjjjckWQjjjjMjjjjvC_Bjjjjjjjjclx",
"999999q9o@ 7`s99q999X+.=PY999999Xo@ 7`s9999q9X+.-=",
"qqqqq8$>=*=7`d99q9O#=---PYqqq99$>=-=7`d9999O#=----",
"q9q8$>=---=7`d99O+>-----PYqq8$@-----7`dqqO#-------",
"ee%,:;::;;-x`dw<:;;;;;;;PYe%,:::-:;-x`dr<:::::;;:-",
"JQ!!WW!!!!!/`~!!!~W!!!!!__Q~W!!W!!!!/`~Q!~!W!!!!!K",
"mDDDAW_GDDDDDDDDFH_RDDDDDSDDSAW_GDDDDSDDDFH`RDDDDm",
"99O# N)t9q9q998$@1(n999qqq9O# N~y999q998$@1(n999q9",
"O#--=zTt99qq9$>-=1PM9qqqqO#=-=zTt9qqq9$>--1PM9qqqq"
};
