/* XPM */
static char *result[] = {
/* columns rows colors chars-per-pixel */
"50 50 204 2 ",
"   c #010101",
".  c #070709",
"X  c #08060A",
"o  c #0B0A0B",
"O  c #090707",
"+  c #0E0E12",
"@  c #130F17",
"#  c #121215",
"$  c #15141A",
"%  c #1A161E",
"&  c #1A1A1E",
"*  c #191413",
"=  c #130E0E",
"-  c #231D1D",
";  c #27201F",
":  c #171620",
">  c #1A1621",
",  c #161821",
"<  c #1D1C23",
"1  c #1D1D29",
"2  c #211D25",
"3  c #231D2B",
"4  c #1F2025",
"5  c #1F202D",
"6  c #212126",
"7  c #24242C",
"8  c #2B2728",
"9  c #2C2C32",
"0  c #2D2239",
"q  c #272736",
"w  c #32293D",
"e  c #35353B",
"r  c #363639",
"t  c #322725",
"y  c #493937",
"u  c #4C3C3A",
"i  c #423A39",
"p  c #4E413F",
"a  c #3A2F48",
"s  c #323346",
"d  c #3C3C42",
"f  c #32344A",
"g  c #3D3D4B",
"h  c #36384E",
"j  c #33354B",
"k  c #483C57",
"l  c #41374E",
"z  c #4E3C64",
"x  c #503E67",
"c  c #3E4059",
"v  c #4C4242",
"b  c #47474C",
"n  c #594644",
"m  c #454553",
"M  c #4B4B54",
"N  c #48455A",
"B  c #58555A",
"V  c #6A5756",
"C  c #755B59",
"Z  c #634D4B",
"A  c #474966",
"S  c #594B6B",
"D  c #554568",
"F  c #545463",
"G  c #5B5B69",
"H  c #515374",
"J  c #5E5E72",
"K  c #56587C",
"L  c #565071",
"P  c #634D7F",
"I  c #67567B",
"U  c #626269",
"Y  c #756666",
"T  c #7B6A69",
"R  c #616174",
"E  c #65657B",
"W  c #6D6D75",
"Q  c #74737C",
"!  c #967876",
"~  c #91726F",
"^  c #A6827F",
"/  c #6E5C84",
"(  c #6E558D",
")  c #6A5287",
"_  c #705F87",
"`  c #775C98",
"'  c #664F83",
"]  c #6C6C83",
"[  c #61648C",
"{  c #75638D",
"}  c #7C7B85",
"|  c #73738A",
" . c #707087",
".. c #6B6D99",
"X. c #796693",
"o. c #7D6996",
"O. c #7F6B98",
"+. c #6E719E",
"@. c #7B7B94",
"#. c #7174A3",
"$. c #787BAA",
"%. c #806C9A",
"&. c #84709F",
"*. c #8668AB",
"=. c #8D78AA",
"-. c #917AAE",
";. c #8C6DB4",
":. c #9577BA",
">. c #9A77C5",
",. c #7E80B1",
"<. c #82829C",
"1. c #8B8A94",
"2. c #95939E",
"3. c #86858F",
"4. c #B28B88",
"5. c #A48B8F",
"6. c #8989A5",
"7. c #9B9AA5",
"8. c #9494A8",
"9. c #8789B9",
"0. c #9898B7",
"q. c #9898B7",
"w. c #9E85BE",
"e. c #BAA2A2",
"r. c #AAA9B8",
"t. c #B2B1BE",
"y. c #C09692",
"u. c #CA9A96",
"i. c #DEA39C",
"p. c #D3A5A1",
"a. c #D9ABA8",
"s. c #D8BAB8",
"d. c #CFAFB2",
"f. c #E3AEAA",
"g. c #E2A9A4",
"h. c #E6B2AE",
"j. c #E8B5B1",
"k. c #ECB9B4",
"l. c #EABDBA",
"z. c #E6B7B3",
"x. c #ECC1BF",
"c. c #9094CF",
"v. c #9F9FC0",
"b. c #9397D3",
"n. c #9498D5",
"m. c #9A9EDB",
"M. c #979BD9",
"N. c #8C90C9",
"B. c #A188C2",
"V. c #A68CC8",
"C. c #A883D8",
"Z. c #B599DA",
"A. c #B69ADA",
"S. c #AC92D0",
"D. c #9FA2DA",
"F. c #A3A2C4",
"G. c #AAAACD",
"H. c #A7A7C9",
"J. c #BDBCCA",
"K. c #B8B6C4",
"L. c #A8A8D5",
"P. c #BABADD",
"I. c #B3B3D8",
"U. c #B28AE4",
"Y. c #B78EEA",
"T. c #B88FEB",
"R. c #BE9DE7",
"E. c #AF87E0",
"W. c #9EA2E4",
"Q. c #A0A4E6",
"!. c #A1A6E8",
"~. c #BEA1E5",
"^. c #BDBDE3",
"/. c #BEBEEA",
"(. c #B6B8F1",
"). c #C4A6EC",
"_. c #C4A5EB",
"`. c #C9AAF2",
"'. c #CEAEF8",
"]. c #C7A9F0",
"[. c #D0B0FA",
"{. c #DCC1C0",
"}. c #CCCBDA",
"|. c #CAC8D7",
" X c #ECCAC9",
".X c #F2CECC",
"XX c #F1D0CF",
"oX c #F2D4D3",
"OX c #C5C5EE",
"+X c #C5C4E7",
"@X c #D4D2E2",
"#X c #D9D7E9",
"$X c #CBCBF4",
"%X c #D5D5FF",
"&X c #D9D9FF",
"*X c #DBDAF3",
"=X c #D0CFE3",
"-X c #E0DEEF",
";X c #E1DFF0",
":X c #EEECFE",
">X c #E6E4FD",
",X c #F1EFFF",
"<X c #F3F1FF",
"1X c None",
/* pixels */
"1X1X1X1X1X1X1X1X1X1X1X1X1X1X1X1X1X1X1X1X1X1X1X1X1X1X1X1X1X1X1X1X1X            1X1X1X1X1X1X1X1X1X1X1X",
"1X1X1X1X1X1X1X1X1X1X1X1X1X1X1X1X1X1X1X1X1X1X1X1X1X1X1X1X1X1X1X  + s F E E J m <   1X1X1X1X1X1X1X1X1X",
"1X1X1X1X1X1X1X1X1X1X1X1X1X1X1X1X1X1X1X1X1X1X1X1X1X1X1X1X1X1X  7 6.I.OX^.P.OX+Xv.N O 1X1X1X1X1X1X1X1X",
"1X1X1X1X1X1X1X1X1X1X1X1X1X1X1X1X1X1X1X1X1X1X1X1X1X1X1X1X1X1X$ 0.P.R 9 < < 6 m q.I.g   1X1X1X1X1X1X1X",
"1X1X1X1X1X1X1X1X1X1X1X1X1X1X1X1X1X1X1X1X1X1X1X1X1X1X1X1X1X  F ^.m       1X    4 H.<.o 1X1X1X1X1X1X1X",
"1X1X1X1X1X1X1X1X1X1X1X1X1X1X1X1X1X1X1X1X1X1X1X1X1X1X1X1X1X  | P.$   1X1X1X1X1X. | H.< 1X1X1X1X1X1X1X",
"1X1X1X1X1X1X1X1X1X1X1X1X1X1X1X1X1X  O O o o     1X1X1X1X1XX <.H.+ 1X1X1X1X1X1X  R P.7   1X1X1X1X1X1X",
"1X1X1X1X1X1X1X1X1X1X1X1X1X        - C 4.y.^ Z =   O       X <.P.$   1X1X1X1X1X. | ^.7   1X1X1X1X1X1X",
"1X1X1X1X1X1X1X1X1X1X1X  * n C C V 4.h.j.j.z.a.^ V T Y p .   @.%XG     1X1X1X  9 I.I.7 1X1X1X1X1X1X1X",
"1X1X1X1X1X1X1X1X1X1X  * ~ f.k.k.k.j.j.j.j.z.z..X.Xz.oX{.Y    .&X^.G %     + g q.&XF.& 1X1X1X1X1X1X1X",
"1X1X1X1X1X1X1X1X1X1X  u h.j.j.j.h.j.j.j.j.j.x.oX.Xz..XoXs.- c G.%X$XI.F.F.G.+X%X%X8.$ 1X1X1X1X1X1X1X",
"1X1X1X1X1X1X1X1X    t ~ j.j.j.j.j.j.z.j.j.j. XoXoXoXoXoX XY ; & @.$X&X%X%X%X%X%X%X@.X 1X1X1X1X1X1X1X",
"1X1X1X1X1X1X1X  * C y.f.k.h.g.f.j.j.j.j.z.x.XXoXoXoXoXoXoX Xe.B # <.%X&X%X%X%X%X%XR   1X1X1X1X1X1X1X",
"1X1X1X1X1X1X1XO C h.k.j.h.k.a.i.h.j.j.j.f.f.XXoXoXoXoXoXoXoXx.a.v 7 R F F J @.F.^.m   1X1X1X1X1X1X1X",
"1X1X1X1X1X1X1X- y.k.j.h.h.k.h.h.j.j.j.j.f.h.XXoXoXoXoXoXoXoXs.z.5.. $ 5 1 < : % 7 #   1X1X1X1X1X1X1X",
"1X1X1X1X1X1X  - p.h.h.k.k.h.h.k.j.j.j.j.z.XXoXoXoXoXoXoXoXoXoXoXe.. H M.M.N.$.[ s +   1X1X1X1X1X1X1X",
"1X1X1X1X1X1X  y a.g.i.j.j.j.j.j.j.h.j.j.x.XXoXoXoXoXoXoXoXoXoXoXd.- 5 +.m.W.W.W.n...q . 1X1X1X1X1X1X",
"1X1X1X1X1Xo Z u.k.f.g.k.j.k.f.g.j.k.j.k. XoXoXoXoXoXoX Xx.XXoXoXoXe.r & +.Q.W.W.W.!.N.c X 1X1X1X1X1X",
"1X1X1X1X  v y.a.a.f.z.a.i.i.u.u.p.i.i.p.d.{.{.{.{.{. Xa.u.{.{.{.{.{.e.8 7 ,.n.c.c.c.c.,.f   1X1X1X1X",
"1X1X    O t y i u 5.d.V y y u l i y y i p v p p v v p p v v v v v v p 2   5 f f f f f f 7       1X1X",
"1X  # s h f j j h =.m.H f f j j s f c m m m c m m b c c m m m m m m m m N m m m m m m m m N c $   1X",
"  1 #.b.n.n.n.n.M.W.W.M.b.M.b.b.b.D./.OXOXOXOXOXOXOXOXOXOXOXOXOXOXOXOXOXOXOXOXOXOXOXOXOXOXOX$Xq.7   ",
"  A !.W.W.W.W.W.W.W.W.W.W.W.W.W.W.(.&X%X%X%X%X%X&X%X%X%X%X%X&X%X%X%X%X%X&X%X%X%X%X%X%X%X&X%X%X&XG   ",
"  c W.W.W.W.W.W.W.W.W.W.W.W.W.W.W.(.%X%X%X%X%X%X%X%X%X%X%X%X%X%X%X%X%X%X%X%X%X%X%X%X%X%X%X%X%X$XF   ",
"  # [ c.b.n.n.b.b.b.b.b.b.b.b.b.b.m./.OXOXOXOXOXOXOXOXOXOXOXOXOX+XOXOX+XOXOXOXOXOXOXOXOXOXOXOX<.:   ",
"1X  . % , , , , , : , , , , , , , , < < 6 6 6 6 4 4 4 4 4 4 4 4 4 4 4 4 4 4 4 4 < 4 4 4 4 4 < o   1X",
"1X1X1X  0 x z z z z z z z z z z z z z z D S S S L S S S S S S S S S S S S S S S S S S S S w   1X1X1X",
"1X1X1XX ' T.Y.Y.Y.Y.Y.Y.Y.Y.Y.Y.Y.T.T.Y.R.V.%.{ o.-.Z.`.'.'.'.'.`._.).'.'.'.'.`.'.'.'.'.[.{ X 1X1X1X",
"1X1X1XX ' U.U.U.U.U.U.U.U.U.U.Y.U.U.>.` a > > 2 2 2 2 N w.].'.A.S 2 w =.].`.`.`.].].`.`.`.{ X 1X1X1X",
"1X1X1XX P U.U.U.U.U.U.U.U.U.U.T.U.:.a $ d } r.J.K.7.U 9 $ I Z.L & B e 3 S.`.`.`.`.`.`.`.`._ X 1X1X1X",
"1X1X1XX ' U.U.U.U.U.U.U.U.U.U.>.*.0 3 @.=X,X,X,X,X,X:XJ.U $ e $ W :X2.> =.`.`.`.`.`.`.`.`._ o 1X1X1X",
"1X1X1X. ' U.U.U.U.U.U.U.U.E.( 0 $ @ 8.%Xr.M B J.,X,X,X,X-XQ o d @X<X3.& B.`.`.].`.`.`.`.`._ X 1X1X1X",
"1X1X1XX P U.U.U.U.U.U.U.U.;.> e b * R G.e & - b #X<X,X:X<X-X7.J.,X:XB 7 R.`.`.`.`.`.`.`.`.{ X 1X1X1X",
"1X1X1XX ' U.U.U.U.U.U.U.U.*.$ 3.#XQ &  .B t.2.G @X:X:X,X:X,X:X,X,X@Xd k _.`.`.`.`.`.`.`.`./ X 1X1X1X",
"1X1X1XX P U.U.U.U.U.U.U.U.>.@ e |.}.# ] +X:X#XP.%X&X*X*X:X:X,X,X<XJ.9 / ].`.`.`.].`.`.`.`.{ X 1X1X1X",
"1X1X1XX ' U.U.U.U.U.U.U.U.*.$ Q *X2.# 6.:X:X1.F +X&X6.M #X,X<X<X<X|.r D ).`.`.`.`.`.`.`.`./ X 1X1X1X",
"1X1X1XX P U.U.U.U.U.U.U.U.;.> U } > N +X>X,X1.+ 6.%XQ & }.:XJ.@X:X>XB 7 ~.`.`.`.`.`.`.`.`.O.# 1X1X1X",
"1X1X1XX ' U.U.U.U.U.U.U.U.C.x @   + 0.%X>X<X=Xb & J c r @X2.4 B ;X<X} & S.`.`.`.`.`.`.`.`.A./ 1X1X1X",
"1X1X1XX P U.U.U.U.U.U.U.U.U.C.;.) > d F.*X,X<X}.W & $ Q ,.- * $ 1.,X7.< =.`.`.`.`.`.`.`.`.~.1X1X1X1X",
"1X1X1XX P U.U.U.U.U.U.U.U.U.U.Y.U.` 3 : U t.}.@X|.r.Q r = b w.l ; 3.b < B.`.`.`.`.`.`.`.`.o.@ 1X1X1X",
"1X1X1X. P U.U.U.U.U.U.U.U.U.U.U.U.U.>.D 1 + 6 r 9 $ * s X.~.`.V.l > 7 / ).`.`.`.`.`.`.`.`./ o 1X1X1X",
"1X1X1XX P U.U.U.U.U.U.U.U.U.U.U.U.U.U.C.:.o.I D L _ =.Z.`.`.`.`.A.-.w.).`.`.].`.].`.`.`.`.{ X 1X1X1X",
"1X1X1X. a ( ( ( ( ( ( ( ( ( ) ( ( ( ( ( o.%.o.{ X.%.%.O.o.o.o.o.O.%.%.o.o.o.o.o.o.o.o.o.o.k   1X1X1X",
"1X    + : > : : : : : : : : : % % > : > < < < 2 2 2 2 < < < < < < 2 < < < < < < < < < < < : # O   1X",
"1X+ A ..#.#.#.#.#.#.#.#.#.#.#.#.#.#.0.0.0.0.0.0.0.0.0.0.q.q.q.q.q.0.0.0.0.0.0.0.0.0.0.0.q.0.8.J + 1X",
"  h M.!.Q.W.Q.Q.Q.Q.W.W.Q.Q.Q.W.W.(.%X%X&X%X&X%X&X&X%X&X%X%X&X%X&X&X&X%X%X%X&X%X&X%X%X%X&X&X%X$XM   ",
"  A !.W.W.W.W.W.W.W.W.W.W.W.W.W.W.(.%X%X%X%X%X%X%X%X%X%X%X%X%X%X%X%X%X%X%X%X%X%X%X%X%X%X%X%X%X&XR   ",
"  q 9.!.!.!.!.!.!.!.!.!.!.!.!.!.W.(.%X&X&X%X%X&X&X&X&X&X&X&X&X&X%X&X&X&X&X&X%X&X&X&X&X&X&X&X%XI.s   ",
"1X. q A H H H H H H H H H H H H H H [ E ] ] ] ] ] ] ] ] ] ] ] ] ] ] ] ] ] ] ] ] ] ] ] ] ] ] E e   1X",
"1X1X        .                         . O           O                           O               1X1X"
};
