/* XPM */
static char *result[] = {
/* columns rows colors chars-per-pixel */
"50 50 155 2 ",
"   c #332C27",
".  c #362F2A",
"X  c #3A322C",
"o  c #262B31",
"O  c #2A2E33",
"+  c #2C3136",
"@  c #2E333A",
"#  c #333436",
"$  c #383533",
"%  c #31363C",
"&  c #33383E",
"*  c #393A3C",
"=  c #443528",
"-  c #4B3C2E",
";  c #423B35",
":  c #433F3B",
">  c #44413D",
",  c #4B443C",
"<  c #53493E",
"1  c #343A41",
"2  c #3A3E43",
"3  c #353F48",
"4  c #383F48",
"5  c #3C4146",
"6  c #3C434C",
"7  c #3E4751",
"8  c #3E4852",
"9  c #414244",
"0  c #4D4741",
"q  c #4E4A45",
"w  c #42474C",
"e  c #44484D",
"r  c #484A4C",
"t  c #534D47",
"y  c #544F49",
"u  c #51504D",
"i  c #5C5349",
"p  c #404750",
"a  c #414952",
"s  c #494E53",
"d  c #484F59",
"f  c #4F5154",
"g  c #4B525C",
"h  c #525253",
"j  c #585755",
"k  c #5C5956",
"l  c #5A5958",
"z  c #645545",
"x  c #6B5742",
"c  c #665847",
"v  c #6C5A46",
"b  c #6C5C4B",
"n  c #62564A",
"m  c #735C43",
"M  c #665E56",
"N  c #6F5857",
"B  c #655F58",
"V  c #75614B",
"C  c #7A654E",
"Z  c #676057",
"A  c #6F6157",
"S  c #666158",
"D  c #696259",
"F  c #756656",
"G  c #7C6A57",
"H  c #7D6D5A",
"J  c #4F5662",
"K  c #525763",
"L  c #545965",
"P  c #59616A",
"I  c #646162",
"U  c #696667",
"Y  c #796561",
"T  c #676D72",
"R  c #666C78",
"E  c #6D7176",
"W  c #6E7378",
"Q  c #70777F",
"!  c #825A53",
"~  c #81674C",
"^  c #83694D",
"/  c #91724E",
"(  c #887157",
")  c #84705A",
"_  c #8E765B",
"`  c #8F785F",
"'  c #9C7B54",
"]  c #93775A",
"[  c #927A5E",
"{  c #9E7E5A",
"}  c #AC6A5E",
"|  c #A27E56",
" . c #846D6B",
".. c #867463",
"X. c #9B7F61",
"o. c #967F68",
"O. c #C06F60",
"+. c #9E805E",
"@. c #A58157",
"#. c #A5825A",
"$. c #AB855B",
"%. c #AE885B",
"&. c #B28655",
"*. c #B48857",
"=. c #BD8D57",
"-. c #B48A5A",
";. c #BA8E5C",
":. c #BD915F",
">. c #9B8163",
",. c #A48562",
"<. c #AB8B65",
"1. c #B28E65",
"2. c #B69166",
"3. c #BB9163",
"4. c #A18971",
"5. c #C3935D",
"6. c #C9965D",
"7. c #CD995E",
"8. c #D19C5E",
"9. c #C29563",
"0. c #C79864",
"q. c #C99862",
"w. c #D39E62",
"e. c #DC8270",
"r. c #DA8878",
"t. c #EB8E79",
"y. c #D7A062",
"u. c #DCA465",
"i. c #D4A168",
"p. c #DAA76D",
"a. c #DFA96C",
"s. c #D7A873",
"d. c #DFAB71",
"f. c #D4A571",
"g. c #E2A867",
"h. c #E0A768",
"j. c #E5AA69",
"k. c #EAAD6A",
"l. c #EEB16E",
"z. c #F3B56F",
"x. c #F6B770",
"c. c #F7B972",
"v. c #FCBC73",
"b. c #FFC275",
"n. c #7D8088",
"m. c #80858E",
"M. c #84888C",
"N. c #8B8E91",
"B. c #A8A6A6",
"V. c #A8ADB4",
"C. c #EFA99A",
"Z. c #D5BEBB",
"A. c #F1B4A7",
"S. c #EBE7E9",
"D. c None",
/* pixels */
"D.D.D.D.D.D.D.D.D.D.D.D.D.D.D.D.D.D.D.D.D.D.D.D.D.D.D.D.D.D.D.D.D.D.D.D.D.D.D.D.D.D.D.D.D.D.D.D.D.D.",
"D.D.D.D.D.D.D.D.D.D.D.D.D.D.D.D.D.L K L L L L L L L L L L L L L L D.D.D.D.D.D.D.D.D.D.D.D.D.D.D.D.D.",
"D.D.D.D.D.D.D.D.D.D.a a a 6 & K L J g g g d d s g d d d g g g g K L K 1 6 a a a D.D.D.D.D.D.D.D.D.D.",
"D.D.D.D.D.D.D.D.D.a a w 6 & 1 g s s a a a a 8 a a a 8 a 8 a a a a d g & % 6 a a a D.D.D.D.D.D.D.D.D.",
"D.D.D.D.D.D.D.a a a a 4 @ @ 5 a 8 a a a a a a a a a a a a a a a a a a 6 % @ 4 p a a a D.D.D.D.D.D.D.",
"D.D.D.D.D.D.a a a a 6 % & 3 6 a a a a a a a a a a a a a a a a a a a a 6 1 % @ 7 a a a a D.D.D.D.D.D.",
"D.D.D.D.a a a a a a 1 + 1 4 a a a 8 7 7 7 a a a a a a a a 7 7 7 a a a p 4 1 @ 1 a a a a a a D.D.D.D.",
"D.D.D.a a a a a a 6 % % & 6 a a a d B D B d a a a a a a s B D B d a a a 6 1 @ @ 6 a a a a a a D.D.D.",
"D.D.D.a a a a a a 4 + 1 1 7 a a a X.k.z.l.,.a a a a a a ,.l.x.l.>.a a a 7 3 1 + 4 a a a a a a D.D.D.",
"D.D.a a a a a a 6 % @ & 4 7 a a a 3.k.j.k.0.a a a a a a 0.k.j.k.3.a a a a 4 1 # % 6 a a a a a a D.D.",
"D.D.a a a a a a 4 O % 1 6 a a a a y | q.| y a a a a 8 a y | q.| t a a a a 6 1 % O 4 a a a a a a D.D.",
"D.D.a a a a a 6 % + % 3 7 a a 7 6 4 2 2 2 p a a a a a a 6 2 2 2 4 6 8 a p w 3 % + % 7 a a a 8 a D.D.",
"D.D.a a a a a 6 O % 1 5 a a a 6 0 ; * p a a a a a a a a a a p 2 ; 0 5 a a a 6 1 @ O 6 a a a a a D.D.",
"D.D.a a a a a 1 O % 1 6 a a 6 0 m = $ 4 a a a a a a a a a a 4 $ = m 0 6 a a 6 1 % O 1 p a a a a D.D.",
"D.D.a a a a a % O % & p a a 6 v ] X   2 a a a 8 a a a a a a 1   X ] v 6 a a 8 1 @ O % a a a a a D.D.",
"D.D.D.6 a a p @ O % 1 a a a 6 n X.$ . 2 a 8 8 7 7 8 7 8 a a 2 . $ >.z 6 a a a 1 % O @ w a a w D.D.D.",
"D.D.D.4 w a w + O % 1 6 a a 7 9 x - # 6 8 f o.<.<.2.<.` h 7 5 # - x 9 w a a 7 1 % O @ 6 a w 3 D.D.D.",
"D.D.D.D.3 6 3 + O & 1 6 a a a 6 : * 2 s X.p.x.b.b.b.b.c.p.o.s 5 * 2 6 p a a 6 2 % O + 1 6 3 D.D.D.D.",
"D.D.D.D.+ O O O O @ 1 3 7 a a a p p f 1.v.v.c.d.s.s.d.c.b.v.2.f 6 p a a a 7 3 1 @ O O + + @ D.D.D.D.",
"D.D.D.D.D.O O O O D.1 1 6 a a a a s 2.v.x.a.o.U n.n.B.4.a.x.c.2.d a a a p 6 & 1 D.O O O O D.D.D.D.D.",
"D.D.D.D.D.+ O O O D.4 & 1 4 7 8 a X.x.l.j...J g P Q V.R ..j.l.x.X.a a 7 4 1 & 3 D.O O O + D.D.D.D.D.",
"D.D.D.D.D.D.O O O D.D.& 1 1 1 4 h w.k.j.h.I s 4 + @ a d S a.j.j.w.u 4 3 1 1 & D.D.O O O D.D.D.D.D.D.",
"D.D.D.D.D.D.+ O O D.D.1 1 @ 1 1 F u.j.j.h.k 6 % O o @ 6 l j.j.j.u.F % 1 & 1 1 D.D.O O + D.D.D.D.D.D.",
"D.D.D.D.D.D.D.+ + D.D.3 1 1 1 5 $.k.j.j.h.N @ O O + O @ b j.j.j.j.| 1 1 & 1 2 D.D.+ + D.D.D.D.D.D.D.",
"D.D.D.D.D.D.D.D.D.D.D.9 & & @ i 6.u.g.9.6.&./ V > > m / &.q.9.j.y.-.q 1 1 1 9 D.D.D.D.D.D.D.D.D.D.D.",
"D.D.D.D.D.D.D.D.D.D.D.% & & 1 b :.3.%.u.g.7.=.| u f ' =.7.u.9.7.7.-.n 1 1 % % D.D.D.D.D.D.D.D.D.D.D.",
"D.D.D.D.D.D.D.D.D.D.e + % & @ V -.5.7.:.6.i.[ A N N A _ 3.-.-.:.5.%.b 1 1 @ O r D.D.D.D.D.D.D.D.D.D.",
"D.D.D.D.D.D.D.D.D.k a @ # t 1 b y.#.6.;.;.H Y } O.O.} Y S +.%.=.#.7.b 1 q # % a k D.D.D.D.D.D.D.D.D.",
"D.D.D.D.D.D.D.D.D.a a 6 c *.t b 8.5.:.$.( T Z.r.e.t.O.Z.E F :.6.5.7.c t -.c 6 a a D.D.D.D.D.D.D.D.D.",
"D.D.D.D.D.D.D.D.D.f s 6 ( 8.@.C 7.7.7.$.j M.S.A.t.t.C.S.N.f +.7.8.6.V #.8.) 6 a s D.D.D.D.D.D.D.D.D.",
"D.D.D.D.D.D.D.D.D.S s 8 ) w.6.$.5.7.6.F 6 5 W  .! !  .E 2 w M =.8.-.' 7.w.) 7 s D D.D.D.D.D.D.D.D.D.",
"D.D.D.D.D.D.D.D.D.D.j a k :.y.*.%.3.F s 2 % 6 3 4 5 3 5 & 5 a M #.@.-.8.9.k a k D.D.D.D.D.D.D.D.D.D.",
"D.D.D.D.D.D.D.D.D.D.D.e a G y.&.c j a s * 3 a a 7 7 8 a 4 * h a j b *.w.H a r D.D.D.D.D.D.D.D.D.D.D.",
"D.D.D.D.D.D.D.D.D.D.+ % e d #.q.z 2 9 * O O 9 F G G F r @ + 9 9 9 x 8.>.d w % + D.D.D.D.D.D.D.D.D.D.",
"D.D.D.D.D.D.D.D.D.D.O O * e k 3./ $ o o O , ' 7.8.8.7.' , O o o # / :.k w * O O D.D.D.D.D.D.D.D.D.D.",
"D.D.D.D.D.D.D.D.D.+ O O + 9 a F 5./ , < / =.8.8.8.8.8.8.=./ < , / 5.F a 9 O O O + D.D.D.D.D.D.D.D.D.",
"D.D.D.D.D.D.D.D.O O O O O O 9 s ' w.6.6.7.w.y.j.j.j.g.y.8.8.6.6.8.' r 9 + O O O O + D.D.D.D.D.D.D.D.",
"D.D.D.D.D.D.D.1 + O O O O O + 9 F 5.7.w.w.u.j.j.j.k.j.j.g.8.8.8.7.F 6 + O O O O O + 1 D.D.D.D.D.D.D.",
"D.D.D.D.D.D.w 7 3 + O O O O O # y 0.g.g.j.k.k.j.j.j.j.j.j.j.g.g.0.u # O O O O O + 3 6 a D.D.D.D.D.D.",
"D.D.D.D.D.D.a a 6 % @ O O O O O * $.w.g.k.k.k.j.j.k.j.k.k.k.j.w.$.* O O O O O @ % 6 a a D.D.D.D.D.D.",
"D.D.D.D.D.7 a 7 1 1 & @ + O O O O # , ~ | 9.h.k.k.k.k.j.5.#.^ , + O O O O + @ 1 & 3 p a p D.D.D.D.D.",
"D.D.D.D.D.a a 6 1 1 1 1 1 @ @ + o O O o O : c m V V V v > + o O O O O @ @ 1 1 1 & & 6 a a D.D.D.D.D.",
"D.D.D.D.6 a a 6 1 1 & & 1 1 1 @ @ + O O O O o o o o o o O O + + @ # @ 1 1 1 1 % 1 1 6 p a 6 D.D.D.D.",
"D.D.D.D.8 a w 4 & 1 1 1 1 1 1 1 1 1 1 @ @ @ @ + # + + + @ % @ % 1 1 1 1 1 1 1 1 1 & 4 w a 7 D.D.D.D.",
"D.D.D.D.8 a a 3 1 1 1 1 1 1 % 1 1 1 1 1 1 1 1 1 % 1 1 & 1 1 % 1 1 % 1 1 1 1 1 1 & 1 3 8 a a D.D.D.D.",
"D.D.D.D.a a 6 1 1 1 1 @ & 1 1 1 1 @ 1 1 % 1 1 % & & 1 1 1 1 1 1 1 1 1 1 1 1 % 1 1 & 1 a a a D.D.D.D.",
"D.D.D.D.a a 7 3 1 1 1 1 1 1 1 1 1 1 1 % 1 1 1 1 & 1 & 1 % 1 1 1 1 1 1 @ % 1 1 1 1 & 1 a a a D.D.D.D.",
"D.D.D.D.a a 7 1 1 @ 1 1 1 1 @ 1 1 1 1 1 1 1 & 1 1 1 & 1 1 1 & & 1 1 1 1 1 1 1 % 1 1 1 a a a D.D.D.D.",
"D.D.D.D.a a a 1 1 1 & 1 1 & 1 1 & 1 1 1 & 1 1 & 1 1 & 1 1 & 1 1 1 1 1 1 & 1 1 & 1 1 1 a a a D.D.D.D.",
"D.D.D.D.D.D.D.D.D.D.D.D.D.D.D.D.D.D.D.D.D.D.D.D.D.D.D.D.D.D.D.D.D.D.D.D.D.D.D.D.D.D.D.D.D.D.D.D.D.D."
};
