/* XPM */
static char *result[] = {
/* columns rows colors chars-per-pixel */
"50 50 190 2 ",
"   c #010101",
".  c #090604",
"X  c #0D0A04",
"o  c #0E0B09",
"O  c #0A070B",
"+  c #120D06",
"@  c #120D0A",
"#  c #180F0B",
"$  c #15120C",
"%  c #1A140B",
"&  c #0A0D14",
"*  c #190F10",
"=  c #0E111B",
"-  c #1E1910",
";  c #1C1013",
":  c #21170B",
">  c #23190C",
",  c #2A1D0D",
"<  c #221D14",
"1  c #261719",
"2  c #30210E",
"3  c #262015",
"4  c #2D2112",
"5  c #2B2519",
"6  c #332412",
"7  c #3A2914",
"8  c #342C1D",
"9  c #332817",
"0  c #161D2D",
"q  c #181E2F",
"w  c #121724",
"e  c #331D23",
"r  c #1A2133",
"t  c #1E273B",
"y  c #3C3322",
"u  c #272C38",
"i  c #323435",
"p  c #363738",
"a  c #2F2C27",
"s  c #4C361A",
"d  c #483318",
"f  c #543B1B",
"g  c #593F1C",
"h  c #443A26",
"j  c #463C27",
"k  c #4D2C34",
"l  c #512D36",
"z  c #543735",
"x  c #5C411E",
"c  c #65451D",
"v  c #4C412B",
"b  c #50442D",
"n  c #57492D",
"m  c #5C4D33",
"M  c #594A35",
"N  c #5F5032",
"B  c #6D4C24",
"V  c #644722",
"C  c #7A5629",
"Z  c #68583A",
"A  c #704F26",
"S  c #77653F",
"D  c #28324C",
"F  c #2C3856",
"G  c #663A45",
"H  c #354264",
"J  c #3D4D77",
"K  c #4B4C4D",
"L  c #72414C",
"P  c #74484C",
"I  c #7A6845",
"U  c #5F6163",
"Y  c #616465",
"T  c #6A6B6C",
"R  c #707274",
"E  c #6D6F71",
"W  c #835C2D",
"Q  c #966A33",
"!  c #9F7036",
"~  c #8D6330",
"^  c #AE7B3C",
"/  c #A77535",
"(  c #B47C34",
")  c #B17D3D",
"_  c #A26F2F",
"`  c #874D5B",
"'  c #8E505F",
"]  c #826D46",
"[  c #86724B",
"{  c #8A754D",
"}  c #8B7549",
"|  c #8D7850",
" . c #947D54",
".. c #997949",
"X. c #965664",
"o. c #A55E6E",
"O. c #B7687B",
"+. c #A67269",
"@. c #BD833B",
"#. c #B6813E",
"$. c #C08438",
"%. c #998256",
"&. c #BE8641",
"*. c #A48A5B",
"=. c #AF935C",
"-. c #B2965E",
";. c #B79B65",
":. c #B28E6A",
">. c #BEA168",
",. c #C08741",
"<. c #C48A43",
"1. c #CA8E45",
"2. c #CC9046",
"3. c #DC9B4B",
"4. c #D39448",
"5. c #E39C42",
"6. c #E09E4D",
"7. c #E3A04E",
"8. c #ECA651",
"9. c #EEA851",
"0. c #F2AB53",
"q. c #C79E60",
"w. c #C2A469",
"e. c #CCAD73",
"r. c #C4A773",
"t. c #DCBA74",
"y. c #DCBB7D",
"u. c #D6B576",
"i. c #D3A260",
"p. c #E0BE7E",
"a. c #EBC67D",
"s. c #F1CB7E",
"d. c #FEC574",
"f. c #425481",
"g. c #495C8D",
"h. c #4A5D90",
"j. c #5B72B0",
"k. c #586EAA",
"l. c #657FC3",
"z. c #CA7387",
"x. c #DB7C93",
"c. c #CB7488",
"v. c #7F8183",
"b. c #6882C9",
"n. c #6E8AD5",
"m. c #6C87D1",
"M. c #7B92CE",
"N. c #7A9AED",
"B. c #7593E4",
"V. c #7C9CF0",
"C. c #8C8E91",
"Z. c #E7839B",
"A. c #F3989E",
"S. c #DFB482",
"D. c #E3B984",
"F. c #F58BA4",
"G. c #F98DA7",
"H. c #FF92AC",
"J. c #FC9BA4",
"K. c #FEA2A5",
"L. c #FFADA3",
"P. c #FFB0A1",
"I. c #E9C685",
"U. c #EDC987",
"Y. c #E7C484",
"T. c #F6CF81",
"R. c #F2CE8B",
"E. c #F1C28D",
"W. c #F7D082",
"Q. c #F9D284",
"!. c #F7D18D",
"~. c #FAD48E",
"^. c #FDCD94",
"/. c #FEC597",
"(. c #FCD690",
"). c #FFD992",
"_. c #839CDA",
"`. c #CACED5",
"'. c #CFD4DB",
"]. c #D9DCDF",
"[. c #DADEE1",
"{. c #DEE2E5",
"}. c #E2E6E9",
"|. c #E5E9EB",
" X c #E2E6E8",
".X c #EDEFF1",
"XX c #F2F4F5",
"oX c #FEFEFE",
"OX c #F6F7F8",
"+X c None",
/* pixels */
"+X+X+X+X+X+X+X+X+X+X+X+X+X+X+X+X+X+X+X+X+X+X+X+X+X+X+X+X+X+X+X+X+X+X+X+X+X+X+X+X+X+X+X+X+X+X+X+X+X+X",
"+X+X+X+X+X+X+X+X+X+X+X+X+X+X+X+X+X+X+X+X+X+X+X+X+X+X+X+X+X+X+X+X+X+X+X+X+X+X+X+X+X+X+X+X+X+X+X+X+X+X",
"+X+X+X+X+X+X+X+X+X+X+X+X+X+X+X+X+X+X+X+X+X+X+X+X+X+X+X+X+X+X+X+X+X+X+X+X+X+X+X+X+X+X+X+X+X+X+X+X+X+X",
"+X+X+X+X+X+X+X+X+X+X+X+X+X+X+X+X+X+X+X+X+X+X+X+X+X+X+X+X+X+X+X+X+X+X+X+X+X+X+X+X+X+X+X+X+X+X+X+X+X+X",
"+X+X+X  + 4 6 > o     +X+X+X+X+X+X+X+X+X+X+X+X+X+X+X+X+X+X+X+X+X+X  . : , 2 % . +X+X+X+X+X+X+X+X+X+X",
"+X+X  X C ,.1.#.! A 6     +X+X+X+X+X+X            +X+X+X+X+X+X  : V Q ) <.<.Q :   +X+X+X+X+X+X+X+X+X",
"+X+X  O 6 f ! 6.0.8.2.C $       . o $ 3 y j y 5 % o .       . x &.7.0.8.) B 9 #   +X+X+X+X+X+X+X+X+X",
"+X+X. L G e # f &.8.7./ ,   3 v [ r.Y.Y.I.U.U.Y.Y.e. .m 5 o + W 3.9.2.A % 1 G P @ +X+X+X+X+X+X+X+X+X",
"+X+X. O.H.Z.' 1 < C g % y ] u.!.(.(.(.(.(.(.(.(.(.(.(.(.D.%.j o d C 7 * L x.H.x.1   +X+X+X+X+X+X+X+X",
"+X+X. O.H.H.H.z.e   - { y.).(.(.(.(.(.(.(.(.(.(.(.(.(.(.(.(.y.%.8   * o.G.H.H.x.1   +X+X+X+X+X+X+X+X",
"+X+X. O.H.H.F.X.* j >.(.).(.~.(.(.(.(.(.(.(.(.(.(.(.(.(.(.(.(.(.y.I $ G Z.H.H.x.1 +X+X+X+X+X+X+X+X+X",
"+X+X  ` H.F.' @ Z t.~.(.(.(.(.(.(.(.(.(.(.(.(.(.(.(.(.(.(.(.(.(.(.R.| * G Z.H.z.. +X+X+X+X+X+X+X+X+X",
"+X+X  k F.o.* m u.s.~.~.).~.(.(.(.(.(.(.(.(.(.(.(.(.(.(.(.(.(.(.(.(.R.[ * P F.`   +X+X+X+X+X+X+X+X+X",
"+X+X+X* X.e d t.Q.Q.).~.(.).(.(.(.(.(.(.(.(.(.(.(.(.(.(.(.(.(.(.(.(.).R.I * X.e   +X+X+X+X+X+X+X+X+X",
"+X+X+X. O % -.Q.T.~.~.).(.(.(.(.(.(.(.(.(.(.(.(.(.(.(.(.(.(.(.(.(.(.(.).y.y O . +X+X+X+X+X+X+X+X+X+X",
"+X+X+X    I s.Q.Q.~.~.~.~.).(.(.(.(.(.(.(.(.(.(.(.(.(.(.(.(.(.(.(.(.(.(.(.*.$   +X+X+X+X+X+X+X+X+X+X",
"+X+X+X  , w.Q.s.R.(.(.(.(.(.(.!.!.(.(.(.(.(.(.(.(.(.(.(.(.(.!.(.(.(.(.(.(.R.j   +X+X+X+X+X+X+X+X+X+X",
"+X+X+X  b s.Q.Q.Q.(.(.(.~.(.U.I %.(.(.(.!.!.).).!.~.(.).R.I | !.(.(.(.(.(.(.{ . +X+X+X+X+X+X+X+X+X+X",
"+X+X+XX } s.Q.s.Q.(.(.(.(.^.D.y Z !.(.(.:.| e.r.[ >.).).U.j M E.^.(.).~.(.(.r.$ +X+X+X+X+X+X+X+X+X+X",
"+X+X+X$ *.s.s.Q.Q.).)./.L.K.A.X.:.(.(.).%.$ - - 3 ;.).).!. .O.K.K.P.^.).(.).I.<   +X+X+X+X+X+X+X+X+X",
"+X+X+X% -.Q.s.s.u.| I P G X.F.H.L.^.(.(.R.*.<   $ j b b b z l l l l z v b b v X                 +X+X",
"+X+X+X% w.s.Q.Q.:.9 3 1 e ` F.H.H./.(.(.(. .$ a p i i u i i i i i i i i i i i p p p p p p p p a o   ",
"+X+X+X% -.Q.s.W.s.D.D.J.F.c.Z.H.K.^.(.(.R.8 K `.{.[.[.[.[.[.[.[.].].].].[.].].].[.].].].].].[.'.K   ",
"+X+X+Xo } Q.W.T.W.~.^.:.G e o.J./.(.(.(.I.< U {.{.{.{.{.[.{.{.{.{.{.{.{.{.{.{.{.{.{.{.{.{.{.{.}.R   ",
"+X+X+X  n s.s.s.Q.t.Z < 3 I S.(.(.(.(.(.R.< Y }.{.{.{.{.{.{.{.{.{.{.{.{.{.{.{.{.{.{.{.{.{.{.{.{.R . ",
"+X+X+X  3 >.Q.Q.Q.-.h I u.~.).(.(.(.(.(.I.< Y {.{.{.{.{.{.{.{.{.{.{.{.{.{.{.{.{.{.{.{.{.{.{.{.|.R   ",
"+X+X+X+X  Z a.s.s.s.a.~.).(.(.(.(.~.(.(.R.- Y }.{.{.{.{.{.{.{.{.{.}..XXX.X}.{.{.{.{.{.{.{.{.{.}.R   ",
"+X+X+X+X+X+ ] s.Q.s.Q.~.).~.(.(.(.(.(.(.R.< Y }.{.{.{.{.{.{.{.{. XXXoXoXoXXX}.{.{.{.{.{.{.{.{.|.R   ",
"+X+X+X+X+X  o ] s.s.Q.Q.~.).).).).).).).R.< U {.{.{.{.{.{.{.{.{.|.oXoXoXoXoX|.{.{.{.{.{.{.{.{.}.R   ",
"+X+X+X+X+X+X  4 t.Q.Q.Q.Q.~.y.r.;.:.>.y.U.3 Y }.{.{.{.{.{.{.{.{.|.oXoXoXoXoX.X{.{.{.{.{.{.{.{.}.R   ",
"+X+X+X+X+X+X+X+X+X;.] =.w.} j < + X $ y Z $ Y }.{.{.{.{.{.{.{.{.}.OXoXoXoXOX|.{.{.{.{.{.{.{.{.|.R   ",
"+X+X+X+X+X+X+X+X+X+X  % , % s Q ^ ) Q v $   Y {.{.{.{.{.{.{.{.{.{.|.XXOXXX|.{.{.{.{.{.{.{.{.{.|.R   ",
"  $ -   +X+X+X+X+X+X+X  7 ) 6.9.0.0.9.7.^ $ Y  X{.{.{.{.{.{.{.{.{.{.{.{.{.{.{.{.{.{.{.{.{.{.{. XR   ",
"  M r.M . +X+X+X+X+X  7 1.9.9.0.0.0.9.9.6.: Y  X{.{.{.{.{.{.{.{.{.{.{.{.{.{.{.{.{.{.{.{.{.{.{. XR   ",
"  5 :.i.s   +X+X+X+X. W 0.9.6.! A V ! 7.6.> Y  X{.{.{.{.{.{.{.{.{.{.{.{.{.{.{.{.{.{.{.{.{.{.{.|.R   ",
"+X  $ ) ^ % +X+X+X+X. B 3.4.x % % % $ C 4.% U [.].].].].].].].].].].].[.].].].].].].].{.{.{.[.{.E   ",
"+X+X  s 4.s   +X+X+X  X d 2   : N m o X f o i T T T T T T T T T T T T T T T T T T T T C.'.`.v.E i   ",
"+X+X  % 2.C   +X+X+X  O 0 0 q q q r q q 0   & t r r r 0 q r q 0 r r q 0 r r q 0 r r q H _.M.D r =   ",
"+X+X+Xo ~ ) % +X+X+X  t j.j.j.j.j.j.j.j.k.& F b.b.b.b.b.b.b.b.b.b.b.b.b.b.b.b.b.b.b.b.b.B.B.b.b.H   ",
"+X+X+X  g 3.7   +X+X  D n.n.n.n.n.n.n.n.b.= H V.N.N.B.N.N.N.B.N.N.N.B.N.N.N.B.N.N.N.N.N.N.N.N.V.J   ",
"+X+X+X  6 1.C   +X+X  w J f.f.f.f.f.f.J J = t h.h.g.h.g.g.g.h.h.h.h.g.g.h.h.h.h.g.g.h.h.h.h.h.g.t   ",
"+X+X+X+X. ~ 4.s         .   . X + + $ o + o + o + X X + X + .   . X X X X X                       +X",
"+X+X+X+X  6 &.2.B 7 f / C X 5 %.w.e.e.q.&.$.<.&.,.,.,.,.,.<.~ % x ( ( ( ( ( c . +X+X+X+X+X+X+X+X+X+X",
"+X+X+X+X+X  4 ! ,.4.2.) f X   4 } t.).d.0.0.0.0.0.0.0.0.0.0.4.6 B $.5.5.5.7._ X +X+X+X+X+X+X+X+X+X+X",
"+X+X+X+X+X+X  . 4 f d %   +X+X  . h I ..^ <.2.2.1.2.2.2.2.1.C % A $.$.$.$.( f . +X+X+X+X+X+X+X+X+X+X",
"+X+X+X+X+X+X+X+X      +X+X+X+X+X+X    . % 4 6 6 6 6 6 6 6 , X   > 2 2 2 2 >     +X+X+X+X+X+X+X+X+X+X",
"+X+X+X+X+X+X+X+X+X+X+X+X+X+X+X+X+X+X+X+X+X+X                              +X+X+X+X+X+X+X+X+X+X+X+X+X",
"+X+X+X+X+X+X+X+X+X+X+X+X+X+X+X+X+X+X+X+X+X+X+X+X+X+X+X+X+X+X+X+X+X+X+X+X+X+X+X+X+X+X+X+X+X+X+X+X+X+X",
"+X+X+X+X+X+X+X+X+X+X+X+X+X+X+X+X+X+X+X+X+X+X+X+X+X+X+X+X+X+X+X+X+X+X+X+X+X+X+X+X+X+X+X+X+X+X+X+X+X+X",
"+X+X+X+X+X+X+X+X+X+X+X+X+X+X+X+X+X+X+X+X+X+X+X+X+X+X+X+X+X+X+X+X+X+X+X+X+X+X+X+X+X+X+X+X+X+X+X+X+X+X"
};
