/* XPM */
static char *result[] = {
/* columns rows colors chars-per-pixel */
"50 50 156 2 ",
"   c #595259",
".  c #5A525A",
"X  c #5B535B",
"o  c #5B535C",
"O  c #5C545D",
"+  c #605663",
"@  c #625865",
"#  c #665A6A",
"$  c #6A5C6F",
"%  c #6E5F74",
"&  c #726279",
"*  c #72627A",
"=  c #786681",
"-  c #836D90",
";  c #9175A2",
":  c #9E7EB3",
">  c #A879CD",
",  c #A97ACD",
"<  c #A979CE",
"1  c #A87ACE",
"2  c #A97ACE",
"3  c #A97BCE",
"4  c #AA7ACE",
"5  c #AA7BCF",
"6  c #AB7BCF",
"7  c #AB7BD0",
"8  c #AB7CD0",
"9  c #AC7DD0",
"0  c #AC7DD1",
"q  c #AD7DD1",
"w  c #AC7ED0",
"e  c #AD7ED1",
"r  c #AD7FD1",
"t  c #AD7ED2",
"y  c #AF7FD3",
"u  c #AF7FD4",
"i  c #A683BD",
"p  c #A884BF",
"a  c #B089CA",
"s  c #B38BCD",
"d  c #B38BCE",
"f  c #AE82D0",
"g  c #AE82D1",
"h  c #AE83D1",
"j  c #AF80D3",
"k  c #AF83D2",
"l  c #B086D1",
"z  c #B186D2",
"x  c #B286D3",
"c  c #B081D4",
"v  c #B181D5",
"b  c #B383D7",
"n  c #B389D3",
"m  c #B384D8",
"M  c #B484D8",
"N  c #B485D8",
"B  c #B584D9",
"V  c #B585D9",
"C  c #B686DA",
"Z  c #B787DA",
"A  c #B788DB",
"S  c #B888DB",
"D  c #B888DC",
"F  c #B988DD",
"G  c #BB8BDF",
"H  c #BC8CDF",
"J  c #BD8CDF",
"K  c #B791D4",
"L  c #B894D5",
"P  c #BB98D7",
"I  c #BD91DB",
"U  c #BF93DD",
"Y  c #BD9CD8",
"T  c #BC8BE0",
"R  c #BD8DE0",
"E  c #BE8DE1",
"W  c #BE8EE2",
"Q  c #BF8FE2",
"!  c #BF8FE3",
"~  c #C093DF",
"^  c #C1A2D9",
"/  c #C1A3DA",
"(  c #C6AADB",
")  c #CCB5DE",
"_  c #C08FE2",
"`  c #C08FE3",
"'  c #C395E3",
"]  c #C190E4",
"[  c #C493E6",
"{  c #C493E7",
"}  c #C494E7",
"|  c #C594E7",
" . c #C697E7",
".. c #C797E7",
"X. c #C39CE0",
"o. c #C594E8",
"O. c #C695E8",
"+. c #C696E8",
"@. c #C696E9",
"#. c #C796E9",
"$. c #C796EA",
"%. c #C897EA",
"&. c #C997EB",
"*. c #C898E9",
"=. c #C898EB",
"-. c #C998EB",
";. c #C999EB",
":. c #CA99EB",
">. c #CA99EC",
",. c #CA99ED",
"<. c #CB99ED",
"1. c #CA9AEC",
"2. c #CB9BEC",
"3. c #CB9AED",
"4. c #CB9AEE",
"5. c #CC9BED",
"6. c #CC9AEE",
"7. c #CC9BEE",
"8. c #CC9BEF",
"9. c #CC9CED",
"0. c #CCA3E9",
"q. c #D1A8ED",
"w. c #D0D0D0",
"e. c #D1D0D2",
"r. c gray83",
"t. c gray84",
"y. c #D7D7D7",
"u. c #D7D0DD",
"i. c gray86",
"p. c #D3C1E2",
"a. c #D6C5E3",
"s. c #D9CAE5",
"d. c #D9C3E9",
"f. c #DCC3ED",
"g. c #DCC9E8",
"h. c #DCD0E6",
"j. c #DDD1E6",
"k. c #DED2E7",
"l. c #E4DDEA",
"z. c #E8DFEF",
"x. c #E5E6E5",
"c. c #E7E0EB",
"v. c #EAE6ED",
"b. c gray91",
"n. c #E9E9E9",
"m. c #EAEBEA",
"M. c #EBECEB",
"N. c #EBE8EE",
"B. c #ECE9EE",
"V. c #ECECEC",
"C. c #EDEDEC",
"Z. c #EDECEE",
"A. c #EFEFEE",
"S. c #EFF0EF",
"D. c #F1F2F0",
"F. c None",
/* pixels */
"F.F.F.F.F.F.F.F.F.F.F.F.F.F.F.F.F.F.F.F.F.F.F.F.F.F.F.F.F.F.F.F.F.F.F.F.F.F.F.F.F.F.F.F.F.F.F.F.F.F.",
"F.F.F.F.F.F.F.F.F.F.F.F.F.F.F.F.F.F.F.F.F.F.F.F.F.F.F.F.F.F.F.F.F.F.F.F.F.F.F.F.F.F.F.F.F.F.F.F.F.F.",
"F.F.F.F.2 2 F.F.F.F.F.F.F.F.F.F.F.F.F.F.F.F.F.F.F.F.F.F.F.F.F.F.F.F.F.F.F.F.F.F.F.F.F.F.F.F.F.F.F.F.",
"F.F.F.F.2 2 2 3 F.F.F.F.F.F.F.F.F.F.F.F.F.F.F.F.F.F.F.F.F.F.F.F.F.F.F.F.F.F.F.F.F.F.F.F.F.F.F.F.F.F.",
"F.F.F.F.F.F.1 2 F.F.F.F.F.F.F.F.F.F.F.F.F.F.F.F.F.F.F.F.F.F.F.F.F.F.F.F.F.F.F.F.F.F.F.F.F.F.F.F.F.F.",
"F.F.F.F.F.F.F.2 2 F.F.F.F.F.F.F.F.F.F.F.F.F.F.F.F.F.F.F.F.F.F.F.F.F.F.F.F.F.F.F.F.F.F.F.F.F.F.F.F.F.",
"F.F.F.F.F.F.F.2 2 F.F.F.F.F.F.F.F.F.F.F.F.F.F.F.F.F.F.F.F.F.F.F.F.F.F.F.F.F.F.F.F.F.F.F.F.F.F.F.F.F.",
"F.F.F.F.F.F.F.< 2 F.F.F.F.F.F.F.F.F.F.F.F.F.F.F.F.F.F.F.F.F.F.F.F.F.F.F.F.F.F.F.F.F.F.F.F.F.F.F.F.F.",
"F.F.F.F.F.F.F.2 2 F.F.F.F.F.F.F.F.F.F.F.F.F.F.F.F.F.F.F.F.F.F.F.F.F.F.F.F.F.F.F.F.F.F.F.F.F.F.F.F.F.",
"F.F.F.F.F.F.F.2 2 F.F.F.F.F.F.F.F.F.F.F.F.F.F.F.F.F.F.F.F.F.F.F.F.F.F.F.F.F.F.F.F.F.F.F.F.F.F.F.F.F.",
"F.F.F.F.F.F.F.2 2 F.F.F.F.F.F.F.F.F.F.F.F.F.F.F.F.F.F.F.F.F.F.F.F.F.F.F.F.F.F.F.F.F.F.F.F.F.F.F.F.F.",
"F.F.F.F.F.F.F.2 F.F.F.F.F.F.F.F.F.F.F.F.F.F.F.F.F.F.F.F.F.F.F.F.F.F.F.F.F.F.F.F.F.F.F.F.F.F.F.F.F.F.",
"F.F.F.F.F.F.2 2 F.F.F.F.F.F.F.F.F.F.F.F.F.F.F.F.F.F.F.F.F.F.F.F.F.F.F.F.F.F.F.F.F.F.F.F.F.F.F.F.F.F.",
"F.F.F.F.F.F.2 2 F.F.F.F.F.F.F.F.F.F.F.F.F.F.F.F.F.F.F.F.F.F.F.F.F.F.F.F.F.F.F.F.F.F.F.F.F.F.F.F.F.F.",
"F.F.F.F.F.F.2 F.F.F.F.F.F.F.F.F.F.F.F.F.F.F.F.F.F.F.F.F.F.F.F.F.F.F.F.F.F.F.F.F.F.F.F.F.F.F.F.F.F.F.",
"F.F.F.F.F.2 2 F.F.F.F.F.F.F.F.F.F.F.F.F.F.F.F.F.F.F.F.F.F.F.F.F.F.F.F.F.F.F.F.F.F.F.F.F.F.F.F.F.F.F.",
"F.F.F.F.F.2 2 F.F.F.F.F.F.F.F.F.F.F.F.F.F.F.F.F.F.F.F.F.F.F.F.F.F.F.F.F.F.F.F.F.F.F.F.F.F.F.F.F.F.F.",
"F.F.F.F.F.2 F.F.F.F.F.F.F.F.F.F.F.F.F.F.F.F.F.F.F.F.F.F.F.F.F.F.F.F.F.F.F.F.F.F.F.F.F.F.F.F.F.F.F.F.",
"F.F.F.F.2 2 F.F.F.F.F.F.F.F.F.F.F.F.F.F.F.F.F.F.F.F.F.F.F.F.F.F.F.F.F.F.F.F.F.F.F.F.F.F.F.F.F.F.F.F.",
"F.F.F.F.2 F.F.F.F.F.F.F.F.F.F.F.F.F.F.F.F.F.F.F.F.F.F.F.F.F.F.F.F.F.F.F.F.F.F.F.F.F.F.F.F.F.F.F.F.F.",
"F.F.F.2 2 F.F.F.F.F.F.F.F.F.F.F.F.F.F.F.F.F.F.F.F.F.F.F.F.F.F.F.F.F.F.F.F.F.F.F.F.F.F.F.F.F.F.F.F.F.",
"F.F.F.2 F.F.F.F.F.F.F.F.F.F.F.F.F.F.F.F.F.F.F.F.F.F.F.F.F.F.F.F.F.F.F.F.F.F.F.F.F.F.F.F.F.F.F.F.F.F.",
"F.F.2 2 F.F.F.F.F.F.F.F.| -.3.3.3.%.O.| | F.F.F.F.F.F.F.F.F.F.F.F.F.F.F.F.F.F.F.F.F.F.F.F.F.F.F.F.F.",
"F.F.2 F.F.F.F.F.F.F.c %.3.3.3.3.3.3.3.3.3.-.$.@.F.F.F.F.F.F.F.F.F.F.F.F.F.F.F.F.F.F.F.F.F.F.F.F.F.F.",
"F.2 2 F.F.F.F.F.F.2 N >.3.3.3.3.3.3.3.3.3.3.3.>.-.$.F.F.F.F.F.F.F.F.F.F.F.F.F.F.F.F.F.F.F.F.F.F.F.F.",
"F.2 F.F.F.F.F.F.F.2 R 3.3.3.3.3.3.3.3.3.3.3.3.3.3.3.>.#.F.F.F.F.F.F.F.F.F.F.F.F.F.F.F.F.F.F.F.F.F.F.",
"2 2 F.F.F.F.F.F.2 5 [ 3.3.3.3.3.3.3.3.3.3.3.3.3.3.3.-.Q B 7 > F.F.F.F.F.F.F.F.F.F.F.F.F.F.F.F.F.F.F.",
"2 2 F.F.F.F.F.F.2 e O.3.3.3.3.3.3.3.3.3.3.3.3.3.3.%.Z w K / Y h 2 F.F.F.F.F.F.2 2 2 2 F.F.F.F.F.F.F.",
"2 2 F.F.F.F.F.2 2 j #.3.3.3.3.3.3.3.3.3.3.3.3.3.>.F f ) c.N.v.h.L 2 F.F.F.2 2 2 2 2 2 2 F.F.F.F.F.F.",
"2 2 F.F.F.F.F.2 2 v $.3.3.3.3.3.3.3.3.3.3.3.3.3.| 0 ( B.M.b.V.S.j.l m F.J 9 2 2 2 2 2 2 , F.F.F.F.F.",
"4 2 F.F.F.F.F.2 2 c #.3.3.3.3.3.3.3.3.3.3.3.3.3.W z s.m.t.w.y.n.v.^ b =.:._ v 2 2 2 2 2 2 F.F.F.F.F.",
"F.2 2 F.F.F.F.2 2 t O.3.3.3.3.3.3.3.3.3.3.3.3.3.T n k.x.r.i.e.u.f.X.V %.3.3.+.A 8 2 2 2 2 F.F.F.F.F.",
"F.2 2 2 F.F.2 2 2 8 } 3.3.3.3.3.3.3.3.3.3.3.3.3.] g p.A.C.Z.g.0.9.>.-.3.3.3.3.>.W y 2 2 2 F.F.F.F.F.",
"F.F.F.2 2 2 2 2 2 2 E 3.3.3.3.3.3.3.3.3.3.3.3.3.$.u P l.D.z.q.<.3.3.3.3.3.3.3.3.3.{ V 5 F.F.F.F.F.F.",
"F.F.F.F.F.F.2 2 2 2 V >.3.3.3.3.3.3.3.3.3.3.3.3.3.Q r P a.d.2.3.3.3.3.3.3.3.6.3.3.3.&._ F.F.F.F.F.F.",
"F.F.F.F.F.F.F.2 2 2 q { 3.3.3.3.3.3.3.3.3.3.3.3.3.>.Q u k x ` 7.3.3.3.3.3.;.~ ..3.3.3.5.4.F.F.F.F.F.",
"F.F.F.F.F.F.F.2 2 2 2 C >.3.3.3.3.3.3.3.3.3.3.3.3.3.3.#.! G o.3.3.3.3.3.6.~ - a 3.3.3.3.3.3.F.F.F.F.",
"F.F.F.F.F.F.F.2 2 2 2 0 E ,.3.3.3.3.3.3.3.3.3.3.3.3.3.3.3.3.3.3.3.3.3.3.3.*.s ' 3.3.3.3.3.3.6.U F.F.",
"F.F.F.F.F.F.F.2 2 2 2 2 t _ >.3.3.3.3.3.3.3.3.3.3.3.3.3.3.3.3.3.3.3.3.3.3.3.8.4.3.3.3.3.3.4. .; $ F.",
"F.F.F.F.F.F.F.F.2 2 2 2 2 8 S [ #.$.$.$.$.$.$.$.$.$.$.$.%.3.3.3.3.3.3.3.3.3.3.3.3.3.3.3.3.6.d + . % ",
"F.F.F.F.F.F.F.F.2 2 2 2 2 2 2 6 y v v v v v v v v v v v M -.3.3.3.3.3.3.3.3.3.3.3.3.3.3.3.1.: X   @ ",
"F.F.F.F.F.F.F.F.F.2 2 2 2 2 2 2 2 2 2 2 2 2 2 2 2 2 2 2 0 { 3.3.3.3.3.3.3.3.3.3.3.3.3.3.3.3.i o   # ",
"F.F.F.F.F.F.F.F.F.F.2 2 2 2 2 2 2 2 2 2 2 2 2 2 2 2 2 2 5 D >.3.3.3.3.3.3.3.3.3.3.3.3.3.3.6.I & O * ",
"F.F.F.F.F.F.F.F.F.F.F.2 2 2 2 2 2 2 2 2 2 2 2 2 2 2 2 2 2 9 H #.>.3.3.3.3.3.3.3.3.3.3.3.3.3.3.p = F.",
"F.F.F.F.F.F.F.F.F.F.F.F.F.2 F.F.2 2 F.F.F.2 2 F.4 2 F.F.F.F.F.F.F.F.F.F.F.F.F.F.F.F.F.F.F.F.F.F.F.F.",
"F.F.F.F.F.F.F.F.F.F.F.F.F.2 F.F.2 F.F.F.F.2 2 F.F.2 F.F.F.F.F.F.F.F.F.F.F.F.F.F.F.F.F.F.F.F.F.F.F.F.",
"F.F.F.F.F.F.F.F.F.F.F.F.F.2 F.F.2 F.F.F.F.2 2 F.F.2 F.F.F.F.F.F.F.F.F.F.F.F.F.F.F.F.F.F.F.F.F.F.F.F.",
"F.F.F.F.F.F.F.F.F.F.F.F.F.2 F.F.2 F.F.F.F.F.F.F.F.2 F.F.F.F.F.F.F.F.F.F.F.F.F.F.F.F.F.F.F.F.F.F.F.F.",
"F.F.F.F.F.F.F.F.F.F.F.F.F.F.F.F.F.F.F.F.F.F.F.F.F.F.F.F.F.F.F.F.F.F.F.F.F.F.F.F.F.F.F.F.F.F.F.F.F.F.",
"F.F.F.F.F.F.F.F.F.F.F.F.F.F.F.F.F.F.F.F.F.F.F.F.F.F.F.F.F.F.F.F.F.F.F.F.F.F.F.F.F.F.F.F.F.F.F.F.F.F."
};
